<svg width="32" height="32" viewBox="0 0 32 32" fill="none" xmlns="http://www.w3.org/2000/svg">
<path d="M15.1875 21.25C14.5 21.9375 13.4375 21.9375 12.75 21.25L8.75 17.25C8.0625 16.5625 8.0625 15.5 8.75 14.8125C9.4375 14.125 10.5 14.125 11.1875 14.8125L14 17.5625L20.75 10.8125C21.4375 10.125 22.5 10.125 23.1875 10.8125C23.875 11.5 23.875 12.5625 23.1875 13.25L15.1875 21.25ZM32 16C32 24.875 24.8125 32 16 32C7.125 32 0 24.875 0 16C0 7.1875 7.125 0 16 0C24.8125 0 32 7.1875 32 16ZM16 3C8.8125 3 3 8.875 3 16C3 23.1875 8.8125 29 16 29C23.125 29 29 23.1875 29 16C29 8.875 23.125 3 16 3Z" fill="#2B8528"/>
</svg>
