<svg width="32" height="32" viewBox="0 0 32 32" fill="none" xmlns="http://www.w3.org/2000/svg">
<path d="M10.9375 10.9375C11.5 10.375 12.4375 10.375 13 10.9375L15.9375 13.9375L18.9375 10.9375C19.5 10.375 20.4375 10.375 21 10.9375C21.625 11.5625 21.625 12.5 21 13.0625L18.0625 16L21 18.9375C21.625 19.5625 21.625 20.5 21 21.0625C20.4375 21.6875 19.5 21.6875 18.9375 21.0625L15.9375 18.125L13 21.0625C12.4375 21.6875 11.5 21.6875 10.9375 21.0625C10.3125 20.5 10.3125 19.5625 10.9375 18.9375L13.875 16L10.9375 13.0625C10.3125 12.5 10.3125 11.5625 10.9375 10.9375ZM32 16C32 24.875 24.8125 32 16 32C7.125 32 0 24.875 0 16C0 7.1875 7.125 0 16 0C24.8125 0 32 7.1875 32 16ZM16 3C8.8125 3 3 8.875 3 16C3 23.1875 8.8125 29 16 29C23.125 29 29 23.1875 29 16C29 8.875 23.125 3 16 3Z" fill="#BB363C"/>
</svg>
