<svg width="32" height="32" viewBox="0 0 32 32" fill="none" xmlns="http://www.w3.org/2000/svg">
<path d="M19.375 4C20.8125 4 22 5.1875 22 6.625C22 7.25 21.75 7.875 21.25 8.375L15.4375 14.625V26C15.4375 27.125 14.5625 28 13.4375 28C13 28 12.625 27.9375 12.3125 27.6875L7.5625 24.5625C6.875 24.125 6.5 23.3125 6.5 22.5V14.625L0.6875 8.375C0.1875 7.875 0 7.25 0 6.625C0 5.1875 1.125 4 2.5625 4H19.375ZM9.4375 14V22.25L12.4375 24.1875V14C12.4375 13.625 12.625 13.3125 12.875 13L18.4375 7H3.5L9.0625 13C9.3125 13.3125 9.4375 13.625 9.4375 14ZM30.5 24.5C31.3125 24.5 32 25.1875 32 26C32 26.875 31.3125 27.5 30.5 27.5H21.5C20.625 27.5 20 26.875 20 26C20 25.1875 20.625 24.5 21.5 24.5H30.5ZM20 16C20 15.1875 20.625 14.5 21.5 14.5H30.5C31.3125 14.5 32 15.1875 32 16C32 16.875 31.3125 17.5 30.5 17.5H21.5C20.625 17.5 20 16.875 20 16ZM30.5 4.5C31.3125 4.5 32 5.1875 32 6C32 6.875 31.3125 7.5 30.5 7.5H25.5C24.625 7.5 24 6.875 24 6C24 5.1875 24.625 4.5 25.5 4.5H30.5Z" fill="#17AED0"/>
</svg>
