<svg width="32" height="32" viewBox="0 0 32 32" fill="none" xmlns="http://www.w3.org/2000/svg">
<path d="M11 2C12.625 2 14 3.375 14 5V11C14 12.6875 12.625 14 11 14H5C3.3125 14 2 12.6875 2 11V5C2 3.375 3.3125 2 5 2H11ZM11 5H5V11H11V5ZM11 18C12.625 18 14 19.375 14 21V27C14 28.6875 12.625 30 11 30H5C3.3125 30 2 28.6875 2 27V21C2 19.375 3.3125 18 5 18H11ZM11 21H5V27H11V21ZM18 5C18 3.375 19.3125 2 21 2H27C28.625 2 30 3.375 30 5V11C30 12.6875 28.625 14 27 14H21C19.3125 14 18 12.6875 18 11V5ZM21 11H27V5H21V11ZM24 17C24.8125 17 25.5 17.6875 25.5 18.5V22.5H29.5C30.3125 22.5 31 23.1875 31 24C31 24.875 30.3125 25.5 29.5 25.5H25.5V29.5C25.5 30.375 24.8125 31 24 31C23.125 31 22.5 30.375 22.5 29.5V25.5H18.5C17.625 25.5 17 24.875 17 24C17 23.1875 17.625 22.5 18.5 22.5H22.5V18.5C22.5 17.6875 23.125 17 24 17Z" fill="#17AED0"/>
</svg>
