<svg width="33" height="32" viewBox="0 0 33 32" fill="none" xmlns="http://www.w3.org/2000/svg">
<path d="M31.5 29.4375C32.125 30.0625 32.125 31 31.5 31.5625C31.25 31.875 30.875 32 30.5 32C30.0625 32 29.6875 31.875 29.375 31.5625L21 23.1875C18.75 25 15.9375 26 12.9375 26C5.8125 26 0 20.1875 0 13C0 5.875 5.75 0 12.9375 0C20.0625 0 25.9375 5.875 25.9375 13C25.9375 16.0625 24.9375 18.875 23.125 21.0625L31.5 29.4375ZM3 13C3 18.5625 7.4375 23 13 23C18.5 23 23 18.5625 23 13C23 7.5 18.5 3 13 3C7.4375 3 3 7.5 3 13Z" fill="#17AED0"/>
</svg>
