<svg width="32" height="32" viewBox="0 0 32 32" fill="none" xmlns="http://www.w3.org/2000/svg">
<path d="M30.0625 2.125C30.625 2.375 31 2.9375 31 3.5V12.5C31 13.375 30.3125 14 29.4375 14H20.5C19.875 14 19.3125 13.6875 19.0625 13.125C18.875 12.5625 19 11.875 19.4375 11.5L23.125 7.75C21.1875 6.0625 18.6875 5 16 5C11.125 5 6.75 8.3125 5.375 12.9375C5.1875 13.75 4.375 14.1875 3.5625 13.9375C2.75 13.75 2.3125 12.875 2.5 12.125C4.25 6.1875 9.8125 2 16 2C19.5 2 22.75 3.375 25.25 5.625L28.4375 2.5C28.8125 2.0625 29.5 1.9375 30.0625 2.125ZM28.375 18.0625C29.1875 18.3125 29.625 19.125 29.375 19.9375C27.625 25.875 22.125 30 15.9375 30C12.4375 30 9.1875 28.6875 6.6875 26.4375L3.5 29.5625C3.25 29.875 2.875 30 2.4375 30C2.25 30 2.0625 30 1.875 29.9375C1.3125 29.6875 0.9375 29.125 0.9375 28.5V19.5C0.9375 18.6875 1.625 18 2.5 18H11.4375C12.0625 18 12.625 18.375 12.8125 18.9375C13 19.5 12.875 20.1875 12.5 20.5625L8.75 24.3125C10.6875 26 13.1875 27 15.9375 27C20.8125 27 25.1875 23.75 26.5 19.0625C26.75 18.25 27.5625 17.8125 28.375 18.0625Z" fill="#17AED0"/>
</svg>
